<?xml version="1.0" encoding="utf-8"?>
<!-- Generator: Adobe Illustrator 21.0.2, SVG Export Plug-In . SVG Version: 6.00 Build 0)  -->
<svg version="1.1" id="Layer_1" xmlns="http://www.w3.org/2000/svg" xmlns:xlink="http://www.w3.org/1999/xlink" x="0px" y="0px"
	 viewBox="0 0 24 24" style="enable-background:new 0 0 24 24;" xml:space="preserve">
<style type="text/css">
	.st0{fill:none;}
</style>
<path d="M12,2C6.5,2,2,6.5,2,12s4.5,10,10,10s10-4.5,10-10v-1c-0.6,0.9-1.2,1.7-1.7,2.4c-0.4,2.2-1.6,4.1-3.3,5.4
	c-0.1-0.3-0.2-0.7-0.3-1c-0.1-0.4-0.2-0.8-0.4-1.2c-0.1-0.4-0.2-0.8-0.4-1.1c-0.1-0.1-0.3-0.2-0.5-0.3c-0.7-0.2-1.6,0.1-2.1-0.6
	c-0.2-0.3-0.2-0.6-0.1-1c0.2-0.3,0.3-0.6,0.5-0.9c0.2-0.4,0.5-0.9,0.6-1.4c-0.8-1.2-1.6-2.6-2-3.9h-0.1c-0.1,0-0.1,0-0.2-0.1
	c-0.2-0.2-0.3-0.7-0.2-1c0-0.5,0.3-0.8,0.2-1.3c0-0.1-0.1-0.9-0.1-0.9c-0.3,0-0.8,0-0.7-0.5V3.5H12h0.5c0.2-0.6,0.6-1.1,0.9-1.5H12z
	 M18,2c-2.2,0-4,1.8-4,4s4,7,4,7s4-4.8,4-7S20.2,2,18,2z M18,4.5c0.8,0,1.5,0.7,1.5,1.5S18.8,7.5,18,7.5S16.5,6.8,16.5,6
	S17.2,4.5,18,4.5z M8,5.1c0.4,0,0.7,0,1,0.1s0.6,0.3,0.8,0.5s0.5,0.5,0.5,0.8c0,0.1,0,0.2-0.1,0.2C10.1,6.8,10,6.8,9.9,6.8
	c-0.3,0-0.6,0-0.8-0.1C9,6.6,8.8,6.4,8.6,6.3C8.1,6.1,7.2,7.4,7.1,7.8C7,8.1,7,8.8,7.5,8.9c0.3,0,1-0.6,1.2-0.8C8.9,8,9,7.9,9.2,7.8
	c0.8-0.1,1.4,0.6,1.6,1.3C11,9.9,9.6,10.5,9,10.7c-0.2,0.1-0.3-0.1-0.5,0c-0.5,0.2-1.1,0.9-1.1,1.4s-0.1,1-0.2,1.5
	c-0.1,0-0.2-0.1-0.2-0.1v-0.2c0-0.3-0.1-0.6-0.4-0.8c-0.1,0-0.1-0.1-0.2-0.1c-0.3-0.1-0.6-0.4-0.9-0.1c-0.2,0.2-0.4,0.5-0.4,0.8
	c0,0.1,0,0.2,0.1,0.3c0.2,0.1,0.4,0,0.6,0c0.1,0,0.2,0.2,0.3,0.3c0.2,0.3,0.3,0.8,0.7,0.8h0.7h1.3c0.3,0.1,0.8,0.2,1,0.4
	c0.1,0.2,0.1,0.4,0.2,0.6c0.4,0.5,1.1,0.5,1.7,0.7c0.2,0.1,0.3,0.2,0.3,0.4c0,0.3-0.1,0.7-0.2,1s-0.2,0.7-0.4,0.9s-0.4,0.3-0.6,0.4
	c-0.4,0.2-0.6,0.6-0.8,0.9c0,0-0.1,0.2-0.2,0.3c-0.8-0.2-1.5-0.5-2.2-1v-0.2c-0.1-0.4-0.2-0.7-0.3-1c-0.2-0.5-0.5-1.1-0.6-1.6
	c0-0.5,0.1-1-0.2-1.4c-0.3-0.5-1.1-0.5-1.6-0.8c-0.4-0.4-0.9-0.8-1.3-1.3V12c0-2.7,1.3-5.1,3.3-6.7C7.3,5.2,7.6,5.1,8,5.1z"/>
<rect class="st0" width="24" height="24"/>
<rect class="st0" width="24" height="24"/>
</svg>
