<?xml version="1.0" encoding="utf-8"?>
<!-- Generator: Adobe Illustrator 21.0.2, SVG Export Plug-In . SVG Version: 6.00 Build 0)  -->
<svg version="1.1" id="Layer_1" xmlns="http://www.w3.org/2000/svg" xmlns:xlink="http://www.w3.org/1999/xlink" x="0px" y="0px"
	 viewBox="0 0 24 24" style="enable-background:new 0 0 24 24;" xml:space="preserve">
<style type="text/css">
	.st0{fill:none;}
</style>
<path d="M6,2v2H5C3.9,4,3,4.9,3,6v14c0,1.1,0.9,2,2,2h14c1.1,0,2-0.9,2-2V6c0-1.1-0.9-2-2-2h-1V2h-2v2H8V2H6z M5,9h14v11H5V9z
	 M11,10v3H8v2h3v3h2v-3h3v-2h-3v-3H11z"/>
<rect class="st0" width="24" height="24"/>
</svg>
