<?xml version="1.0" encoding="utf-8"?>
<!-- Generator: Adobe Illustrator 21.0.2, SVG Export Plug-In . SVG Version: 6.00 Build 0)  -->
<svg version="1.1" id="Layer_1" xmlns="http://www.w3.org/2000/svg" xmlns:xlink="http://www.w3.org/1999/xlink" x="0px" y="0px"
	 viewBox="0 0 24 24" style="enable-background:new 0 0 24 24;" xml:space="preserve">
<style type="text/css">
	.st0{fill:none;}
</style>
<path d="M21,11c0,6.7-4.3,6.4-4.8,6.4c-0.6,0-1.1-0.1-1.6-0.4c-0.4-0.3-0.8-0.6-1-1.1c-0.4,0.5-0.8,0.9-1.3,1.1
	c-0.5,0.3-1,0.4-1.6,0.4c-0.5,0-1-0.1-1.4-0.3c-0.4-0.2-0.8-0.6-1-1c-0.3-0.4-0.5-0.9-0.6-1.5c-0.1-0.6-0.1-1.3-0.1-2
	c0.1-0.9,0.3-1.7,0.6-2.5c0.3-0.7,0.7-1.4,1.1-1.9c0.4-0.5,0.9-0.9,1.5-1.2c0.6-0.3,1.2-0.4,1.8-0.4c2,0,3.1,1,3.3,1.2L15.4,14
	c0,0.4-0.2,1.8,1.1,1.8c0.4,0,2.4-0.5,2.4-4.7c0-0.1,0.9-7-6.6-7C6.3,4,5,9.9,5,12c0,8.4,5.3,8,7,8c2,0,3.1-0.4,3.3-0.5l0.4,1.8
	C15.5,21.5,14.5,22,12,22c-3.1,0-9-0.1-9-10c0-1.4,0.8-10,9.5-10C20.8,2,21,9.6,21,11z M10.1,12.6c-0.1,0.9,0,1.7,0.2,2.2
	c0.2,0.5,0.6,0.7,1.2,0.7c1.1,0,1.7-1.4,1.8-1.8l0.5-5.1c-0.1,0-0.7-0.1-0.9-0.1c-0.8,0-1.5,0.4-1.9,1.1
	C10.5,10.2,10.2,11.2,10.1,12.6z"/>
<rect class="st0" width="24" height="24"/>
</svg>
