<?xml version="1.0" encoding="utf-8"?>
<!-- Generator: Adobe Illustrator 21.0.2, SVG Export Plug-In . SVG Version: 6.00 Build 0)  -->
<svg version="1.1" id="Layer_1" xmlns="http://www.w3.org/2000/svg" xmlns:xlink="http://www.w3.org/1999/xlink" x="0px" y="0px"
	 viewBox="0 0 24 24" style="enable-background:new 0 0 24 24;" xml:space="preserve">
<style type="text/css">
	.st0{fill:none;}
</style>
<path d="M6,2C4.3,2,3,3.3,3,5v14c0,1.7,1.3,3,3,3h4v-2H6c-0.6,0-1-0.4-1-1V5c0-0.6,0.4-1,1-1h10c0.6,0,1,0.4,1,1v7.6l2-2V5
	c0-1.7-1.3-3-3-3H6z M20.2,12c-0.1,0-0.3,0.1-0.4,0.2L19,13l2,2l0.8-0.8c0.2-0.2,0.2-0.6,0-0.7l-1.3-1.3C20.5,12,20.3,12,20.2,12z
	 M18.5,13.5L12,20v2h2l6.5-6.5L18.5,13.5z"/>
<rect class="st0" width="24" height="24"/>
</svg>
