<?xml version="1.0" encoding="utf-8"?>
<!-- Generator: Adobe Illustrator 21.0.2, SVG Export Plug-In . SVG Version: 6.00 Build 0)  -->
<svg version="1.1" id="Layer_1" xmlns="http://www.w3.org/2000/svg" xmlns:xlink="http://www.w3.org/1999/xlink" x="0px" y="0px"
	 viewBox="0 0 24 24" style="enable-background:new 0 0 24 24;" xml:space="preserve">
<style type="text/css">
	.st0{fill:none;}
</style>
<g>
	<path d="M12,2C6.5,2,2,6.5,2,12s4.5,10,10,10s10-4.5,10-10S17.5,2,12,2z M12,20c-4.5,0-8-3.5-8-8s3.5-8,8-8s8,3.5,8,8
		S16.5,20,12,20z"/>
</g>
<rect x="11" y="15" width="2" height="2"/>
<path d="M13,14h-2c0-2.6,2-2.1,2-4.2c0-0.4-0.2-1.3-1.1-1.3c-0.3,0-1,0.5-1,1.5H9c0,0-0.4-3,2.9-3C14.5,7,15,8.9,15,9.8
	C15,12.1,13,12.3,13,14z"/>
<rect class="st0" width="24" height="24"/>
</svg>
