<?xml version="1.0" encoding="utf-8"?>
<!-- Generator: Adobe Illustrator 21.0.2, SVG Export Plug-In . SVG Version: 6.00 Build 0)  -->
<svg version="1.1" id="Layer_1" xmlns="http://www.w3.org/2000/svg" xmlns:xlink="http://www.w3.org/1999/xlink" x="0px" y="0px"
	 viewBox="0 0 24 24" style="enable-background:new 0 0 24 24;" xml:space="preserve">
<style type="text/css">
	.st0{fill:none;}
</style>
<path d="M11.9,2c-0.3,0-0.5,0.1-0.7,0.3L7,6.5c-0.4,0.4-0.4,1,0,1.4s1,0.4,1.4,0l4.2-4.2c0.4-0.4,0.4-1,0-1.4
	C12.5,2.1,12.2,2,11.9,2z M13.3,4.4L9.1,8.7c0,0,0,0.8,0.8,2l-7.3,7.3c-0.7,0.7-0.8,1.7-0.2,2.3s1.6,0.5,2.3-0.2l7.3-7.3
	c1.2,0.9,2.1,0.8,2.1,0.8l4.2-4.2c0,0,0.1-1.3-1.8-3.2S13.3,4.4,13.3,4.4z M19.7,9.8c-0.3,0-0.5,0.1-0.7,0.3l-4.2,4.2
	c-0.4,0.4-0.4,1,0,1.4c0.4,0.4,1,0.4,1.4,0l4.2-4.2c0.4-0.4,0.4-1,0-1.4C20.2,9.9,20,9.8,19.7,9.8z M13,20c-1.1,0-2,0.9-2,2h11
	c0-1.1-0.9-2-2-2H13z"/>
<rect class="st0" width="24" height="24"/>
</svg>
