<svg xmlns="http://www.w3.org/2000/svg" viewBox="0 0 24 24" enable-background="new 0 0 24 24">
    <path d="M 5 4 C 2.2 4 0 6.2 0 9 C 0 11.8 2.2 14 5 14 L 8 14 C 9.6 14 11.1 13.2 12 12 C 12.9 13.2 14.4 14 16 14 L 19 14 C 21.8 14 24 11.8 24 9 C 24 6.2 21.8 4 19 4 L 16 4 C 14.4 4 12.9 4.8 12 6 C 11.1 4.8 9.6 4 8 4 L 5 4 z M 5 6 L 8 6 C 8.9 6 9.6875 6.4 10.1875 7 L 13.8125 7 C 14.3125 6.4 15.1 6 16 6 L 19 6 C 20.7 6 22 7.3 22 9 C 22 10.7 20.7 12 19 12 L 16 12 C 15.1 12 14.3125 11.6 13.8125 11 L 10.1875 11 C 9.6875 11.6 8.9 12 8 12 L 5 12 C 3.3 12 2 10.7 2 9 C 2 7.3 3.3 6 5 6 z M 7.8125 8 A 1.001098 1.001098 0 0 0 8 10 L 16 10 A 1.0001 1.0001 0 1 0 16 8 L 8 8 A 1.0001 1.0001 0 0 0 7.90625 8 A 1.001098 1.001098 0 0 0 7.8125 8 z M 17 16 L 17 19 L 14 19 L 14 21 L 17 21 L 17 24 L 19 24 L 19 21 L 22 21 L 22 19 L 19 19 L 19 16 L 17 16 z"></path>
</svg>