<svg xmlns="http://www.w3.org/2000/svg" viewBox="0 0 24 24" enable-background="new 0 0 24 24">
    <path style="text-indent:0;text-align:start;line-height:normal;text-transform:none;block-progression:tb;-inkscape-font-specification:Bitstream Vera Sans" d="M 5 7 C 2.2 7 0 9.2 0 12 C 0 14.8 2.2 17 5 17 L 8 17 C 9.6 17 11.1 16.2 12 15 C 12.9 16.2 14.4 17 16 17 L 19 17 C 21.8 17 24 14.8 24 12 C 24 9.2 21.8 7 19 7 L 16 7 C 14.4 7 12.9 7.8 12 9 C 11.1 7.8 9.6 7 8 7 L 5 7 z M 5 9 L 8 9 C 8.9 9 9.6875 9.4 10.1875 10 L 13.8125 10 C 14.3125 9.4 15.1 9 16 9 L 19 9 C 20.7 9 22 10.3 22 12 C 22 13.7 20.7 15 19 15 L 16 15 C 15.1 15 14.3125 14.6 13.8125 14 L 10.1875 14 C 9.6875 14.6 8.9 15 8 15 L 5 15 C 3.3 15 2 13.7 2 12 C 2 10.3 3.3 9 5 9 z M 7.8125 11 A 1.001098 1.001098 0 0 0 8 13 L 16 13 A 1.0001 1.0001 0 1 0 16 11 L 8 11 A 1.0001 1.0001 0 0 0 7.90625 11 A 1.001098 1.001098 0 0 0 7.8125 11 z" overflow="visible" enable-background="accumulate" font-family="Bitstream Vera Sans"></path>
</svg>