<svg xmlns="http://www.w3.org/2000/svg" viewBox="0 0 24 24" enable-background="new 0 0 24 24">
    <path style="text-indent:0;text-align:start;line-height:normal;text-transform:none;block-progression:tb;-inkscape-font-specification:Bitstream Vera Sans" d="M 5 7 C 2.2 7 0 9.2 0 12 C 0 14.8 2.2 17 5 17 L 8 17 C 9.9 17 11.5125 16.00625 12.3125 14.40625 L 10.09375 14.1875 C 9.49375 14.6875 8.8 15 8 15 L 5 15 C 3.3 15 2 13.7 2 12 C 2 10.3 3.3 9 5 9 L 8 9 C 9 9 9.80625 9.4875 10.40625 10.1875 L 12.8125 10.5 C 12.1125 8.5 10.2 7 8 7 L 5 7 z M 16.34375 7.84375 C 16.112563 7.8440581 15.880748 7.8741789 15.65625 7.90625 L 15.9375 9.875 C 16.43951 9.803284 17.073353 9.901973 17.59375 10.125 C 18.293583 10.531306 19.652462 11.150726 20.28125 11.40625 C 21.765569 12.074193 22.373644 13.850236 21.6875 15.375 C 21.019557 16.859319 19.243514 17.467394 17.71875 16.78125 C 17.002493 16.365409 15.574624 15.7111 14.96875 15.46875 L 14.21875 17.34375 C 14.590684 17.492524 16.466199 18.37347 16.78125 18.5625 L 16.84375 18.59375 L 16.875 18.625 C 19.350236 19.738856 22.367943 18.734431 23.5 16.21875 L 23.53125 16.15625 C 24.599844 13.693188 23.6192 10.716139 21.125 9.59375 L 21.09375 9.59375 L 21.0625 9.5625 C 20.690566 9.4137263 18.815051 8.5327803 18.5 8.34375 L 18.46875 8.3125 L 18.40625 8.28125 C 17.746548 7.9985205 17.03731 7.8428258 16.34375 7.84375 z M 8.71875 11 A 1.0004882 1.0004882 0 0 0 8.875 13 L 16.875 14 A 1.0077822 1.0077822 0 0 0 17.125 12 L 9.125 11 A 1.0001 1.0001 0 0 0 8.8125 11 A 1.0004882 1.0004882 0 0 0 8.71875 11 z" overflow="visible" enable-background="accumulate" font-family="Bitstream Vera Sans"></path>
</svg>