<?xml version="1.0" encoding="utf-8"?>
<!-- Generator: Adobe Illustrator 21.0.2, SVG Export Plug-In . SVG Version: 6.00 Build 0)  -->
<svg version="1.1" id="Layer_1" xmlns="http://www.w3.org/2000/svg" xmlns:xlink="http://www.w3.org/1999/xlink" x="0px" y="0px"
	 viewBox="0 0 24 24" style="enable-background:new 0 0 24 24;" xml:space="preserve">
<style type="text/css">
	.st0{fill:none;}
</style>
<path d="M5,4C2.2,4,0,6.2,0,9s2.2,5,5,5h3c1.6,0,3.1-0.8,4-2c0.9,1.2,2.4,2,4,2h3c2.8,0,5-2.2,5-5s-2.2-5-5-5h-3c-1.6,0-3.1,0.8-4,2
	c-0.9-1.2-2.4-2-4-2H5z M5,6h3c0.9,0,1.7,0.4,2.2,1h3.6c0.5-0.6,1.3-1,2.2-1h3c1.7,0,3,1.3,3,3s-1.3,3-3,3h-3c-0.9,0-1.7-0.4-2.2-1
	h-3.6c-0.5,0.6-1.3,1-2.2,1H5c-1.7,0-3-1.3-3-3S3.3,6,5,6z M7.8,8c-0.6,0.1-1,0.5-0.9,1.1s0.5,1,1.1,0.9h8c0.6,0,1-0.4,1-1
	c0-0.6-0.4-1-1-1c0,0,0,0,0,0H8C8,8,7.9,8,7.8,8C7.9,8,7.8,8,7.8,8z"/>
<polygon points="17.7,16 16.5,18.8 13.5,19 15.8,21.1 15.1,24 17.7,22.4 20.3,24 19.7,21.1 21.9,19 18.9,18.8 "/>
<rect class="st0" width="24" height="24"/>
</svg>
