<?xml version="1.0" encoding="utf-8"?>
<!-- Generator: Adobe Illustrator 21.0.2, SVG Export Plug-In . SVG Version: 6.00 Build 0)  -->
<svg version="1.1" id="Layer_1" xmlns="http://www.w3.org/2000/svg" xmlns:xlink="http://www.w3.org/1999/xlink" x="0px" y="0px"
	 viewBox="0 0 24 24" style="enable-background:new 0 0 24 24;" xml:space="preserve">
<style type="text/css">
	.st0{fill:none;}
</style>
<g id="surface1">
	<path d="M5,10c-1.1,0-2,0.9-2,2s0.9,2,2,2s2-0.9,2-2S6.1,10,5,10z M12,10c-1.1,0-2,0.9-2,2s0.9,2,2,2s2-0.9,2-2S13.1,10,12,10z
		 M19,10c-1.1,0-2,0.9-2,2s0.9,2,2,2s2-0.9,2-2S20.1,10,19,10z"/>
</g>
<rect class="st0" width="24" height="24"/>
</svg>
