<?xml version="1.0" encoding="utf-8"?>
<!-- Generator: Adobe Illustrator 21.0.2, SVG Export Plug-In . SVG Version: 6.00 Build 0)  -->
<svg version="1.1" id="Layer_1" xmlns="http://www.w3.org/2000/svg" xmlns:xlink="http://www.w3.org/1999/xlink" x="0px" y="0px"
	 viewBox="0 0 24 24" style="enable-background:new 0 0 24 24;" xml:space="preserve">
<style type="text/css">
	.st0{fill:none;}
</style>
<g id="surface1">
	<path d="M4,3C3.5,3,2.9,3.2,2.6,3.6S2,4.5,2,5v14c0,0.5,0.2,1.1,0.6,1.4S3.5,21,4,21h5v-2H4v-9h16v9h-5v2h5c0.5,0,1.1-0.2,1.4-0.6
		S22,19.5,22,19V5c0-0.5-0.2-1.1-0.6-1.4S20.5,3,20,3H4z M5.5,5C6.3,5,7,5.7,7,6.5S6.3,8,5.5,8S4,7.3,4,6.5S4.7,5,5.5,5z M9.5,5
		C10.3,5,11,5.7,11,6.5S10.3,8,9.5,8S8,7.3,8,6.5S8.7,5,9.5,5z M12,5h8v3h-8V5z M12,13l-3,4h2v5h2v-5h2L12,13z"/>
</g>
<rect class="st0" width="24" height="24"/>
</svg>
