<?xml version="1.0" encoding="utf-8"?>
<!-- Generator: Adobe Illustrator 21.0.2, SVG Export Plug-In . SVG Version: 6.00 Build 0)  -->
<svg version="1.1" id="Layer_1" xmlns="http://www.w3.org/2000/svg" xmlns:xlink="http://www.w3.org/1999/xlink" x="0px" y="0px"
	 viewBox="0 0 20 20" style="enable-background:new 0 0 20 20;" xml:space="preserve">
<style type="text/css">
	.st0{fill:none;}
</style>
<title>Rectangle-path</title>
<desc>Created with Sketch.</desc>
<g id="webinar">
	<g transform="translate(-325.000000, -431.000000)">
		<g id="Perian-Copy-2" transform="translate(325.000000, 431.000000)">
			<path id="فـ" d="M5.2,18.1v-1.8h3.7c0.7,0,1.3-0.1,1.7-0.2c0.4-0.1,0.8-0.2,1-0.4c0.2-0.2,0.4-0.3,0.5-0.5s0.1-0.4,0.2-0.5
				h-1.5c-0.2,0-0.4,0-0.6,0c-0.2,0-0.4,0-0.6-0.1s-0.4-0.1-0.7-0.2c-0.2-0.1-0.4-0.2-0.7-0.3c-0.2-0.1-0.3-0.2-0.5-0.4
				c-0.2-0.2-0.3-0.3-0.5-0.6C7.1,13,7,12.8,6.9,12.4c-0.1-0.3-0.1-0.7-0.1-1.1c0-0.5,0.1-1,0.3-1.5C7.2,9.4,7.5,9,7.8,8.7
				C8.2,8.4,8.5,8.1,9,7.9s0.9-0.3,1.4-0.3c0.6,0,1.1,0.1,1.5,0.4s0.9,0.6,1.2,1c0.3,0.5,0.6,1,0.8,1.7c0.2,0.7,0.2,1.5,0.2,2.3v1.3
				c0,0.6-0.1,1.2-0.4,1.7c-0.3,0.5-0.6,0.9-1.1,1.2c-0.9,0.5-2.1,0.8-3.7,0.8H5.2z M10.3,9.5c-0.2,0-0.4,0-0.6,0.1
				C9.5,9.7,9.3,9.8,9.1,9.9c-0.2,0.2-0.3,0.3-0.4,0.6c-0.1,0.2-0.2,0.5-0.2,0.8c0,0.2,0,0.4,0.1,0.5c0,0.1,0.1,0.3,0.2,0.4
				c0.1,0.1,0.1,0.2,0.2,0.2c0.1,0.1,0.2,0.1,0.2,0.1c0.2,0.1,0.4,0.2,0.7,0.2s0.6,0.1,1,0.1h1.5c0-0.6-0.1-1.2-0.2-1.7
				c-0.1-0.5-0.3-0.9-0.5-1.2C11.3,9.7,10.9,9.5,10.3,9.5z M8.2,4.1l2.2-2.2l2.3,2.3l-2.2,2.2L8.2,4.1z"/>
		</g>
	</g>
</g>
<rect class="st0" width="20" height="20"/>
</svg>
