<?xml version="1.0" encoding="utf-8"?>
<!-- Generator: Adobe Illustrator 21.0.2, SVG Export Plug-In . SVG Version: 6.00 Build 0)  -->
<svg version="1.1" id="Layer_1" xmlns="http://www.w3.org/2000/svg" xmlns:xlink="http://www.w3.org/1999/xlink" x="0px" y="0px"
	 viewBox="0 0 24 24" style="enable-background:new 0 0 24 24;" xml:space="preserve">
<style type="text/css">
	.st0{fill:none;}
</style>
<path d="M9,2C5.1,2,2,5.1,2,9s3.1,7,7,7c1.7,0,3.3-0.6,4.5-1.6l0.5,0.5v0.8l6.3,6.3l1.7-1.7L15.7,14h-0.9l-0.5-0.5
	c1-1.2,1.7-2.8,1.7-4.5C16,5.1,12.9,2,9,2z M9,4c2.8,0,5,2.2,5,5s-2.2,5-5,5s-5-2.2-5-5S6.2,4,9,4z"/>
<rect class="st0" width="24" height="24"/>
</svg>
