<?xml version="1.0" encoding="utf-8"?>
<!-- Generator: Adobe Illustrator 21.0.2, SVG Export Plug-In . SVG Version: 6.00 Build 0)  -->
<svg version="1.1" id="Layer_1" xmlns="http://www.w3.org/2000/svg" xmlns:xlink="http://www.w3.org/1999/xlink" x="0px" y="0px"
	 viewBox="0 0 24 24" style="enable-background:new 0 0 24 24;" xml:space="preserve">
<style type="text/css">
	.st0{fill:none;}
</style>
<path d="M22,10V6c0-1.1-0.9-2-2-2H4C2.9,4,2,4.9,2,6v4c1.1,0,2,0.9,2,2s-0.9,2-2,2v4c0,1.1,0.9,2,2,2h16c1.1,0,2-0.9,2-2v-4
	c-1.1,0-2-0.9-2-2S20.9,10,22,10z M15.1,16.2L12,14.4l-3.1,1.9l0.8-3.5L7,10.4l3.6-0.3L12,6.8l1.4,3.3l3.6,0.3l-2.7,2.4L15.1,16.2z"
	/>
<rect class="st0" width="24" height="24"/>
</svg>
