<?xml version="1.0" encoding="utf-8"?>
<!-- Generator: Adobe Illustrator 21.0.2, SVG Export Plug-In . SVG Version: 6.00 Build 0)  -->
<svg version="1.1" id="Layer_1" xmlns="http://www.w3.org/2000/svg" xmlns:xlink="http://www.w3.org/1999/xlink" x="0px" y="0px"
	 viewBox="0 0 24 24" style="enable-background:new 0 0 24 24;" xml:space="preserve">
<style type="text/css">
	.st0{fill:none;}
</style>
<path d="M20,7.5c0,0.1,0,0.3,0,0.6c0,5.4-4.2,11.7-11.7,11.7C6,19.9,3.8,19.1,2,18c0.3,0,0.7,0,1,0c1.9,0,3.7-0.7,5.2-1.7
	c-1.9,0-3.3-1.3-3.9-2.9c0.3,0,0.6,0.1,0.7,0.1c0.4,0,0.7,0,1.1-0.1c-1.9-0.4-3.3-2-3.3-4l0,0C3.4,9.7,4,9.8,4.7,10
	C3.6,9,2.8,7.8,2.8,6.4c0-0.7,0.1-1.4,0.6-2c2,2.4,5,4.2,8.4,4.3c0-0.3-0.1-0.6-0.1-1c0-2.3,1.9-4.2,4.2-4.2c1.1,0,2.3,0.4,3,1.3
	c1-0.1,1.9-0.6,2.6-1c-0.3,1-1,1.7-1.9,2.3C20.4,6,21.2,5.8,22,5.4C21.5,6.3,20.7,7,20,7.5z"/>
<rect class="st0" width="24" height="24"/>
</svg>
