<?xml version="1.0" encoding="utf-8"?>
<!-- Generator: Adobe Illustrator 21.0.2, SVG Export Plug-In . SVG Version: 6.00 Build 0)  -->
<svg version="1.1" id="Layer_1" xmlns="http://www.w3.org/2000/svg" xmlns:xlink="http://www.w3.org/1999/xlink" x="0px" y="0px"
	 viewBox="0 0 24 24" style="enable-background:new 0 0 24 24;" xml:space="preserve">
<style type="text/css">
	.st0{fill:none;}
</style>
<path d="M6,2C4.9,2,4,2.9,4,4v11h16V4c0-1.1-0.9-2-2-2H6z M11.8,7c2,0,4.1,0.5,5.2,1.7l0.7,0.7c0.2,0.2,0.2,0.5,0.1,0.7l-1.4,1.4
	c-0.2,0.2-0.5,0.2-0.7,0l-1.3-1.3V8.6c-0.5-0.5-4.5-0.5-5,0v1.6l-1.3,1.3c-0.2,0.2-0.5,0.2-0.7,0l-1.4-1.4C6,9.9,6,9.6,6.1,9.4
	l0.7-0.7C7.9,7.6,9.8,7,11.8,7z M4,16v4c0,1.1,0.9,2,2,2h12c1.1,0,2-0.9,2-2v-4H4z M7,18c0.6,0,1,0.4,1,1s-0.4,1-1,1s-1-0.4-1-1
	S6.4,18,7,18z"/>
<rect class="st0" width="24" height="24"/>
</svg>
