<?xml version="1.0" encoding="utf-8"?>
<!-- Generator: Adobe Illustrator 21.0.2, SVG Export Plug-In . SVG Version: 6.00 Build 0)  -->
<svg version="1.1" id="Layer_1" xmlns="http://www.w3.org/2000/svg" xmlns:xlink="http://www.w3.org/1999/xlink" x="0px" y="0px"
	 viewBox="0 0 24 24" style="enable-background:new 0 0 24 24;" xml:space="preserve">
<style type="text/css">
	.st0{fill:none;}
</style>
<path d="M4,2C2.9,2,2,2.9,2,4v13c0,1.1,0.9,2,2,2h6v1H6v2h12v-2h-4v-1h6c1.1,0,2-0.9,2-2V4c0-1.1-0.9-2-2-2H4z M4,4h16v13H4V4z
	 M12,5c-1.1,0-2,0.9-2,2s0.9,2,2,2s2-0.9,2-2S13.1,5,12,5z M10,10c-1.1,0-2,0.9-2,2v1h8v-1c0-1.1-0.9-2-2-2H10z M5,14v2h4v-2H5z
	 M10,14v2h4v-2H10z M15,14v2h4v-2H15z"/>
<rect class="st0" width="24" height="24"/>
</svg>
