<?xml version="1.0" encoding="utf-8"?>
<!-- Generator: Adobe Illustrator 21.0.2, SVG Export Plug-In . SVG Version: 6.00 Build 0)  -->
<svg version="1.1" id="Layer_1" xmlns="http://www.w3.org/2000/svg" xmlns:xlink="http://www.w3.org/1999/xlink" x="0px" y="0px"
	 viewBox="0 0 24 24" style="enable-background:new 0 0 24 24;" xml:space="preserve">
<style type="text/css">
	.st0{fill:none;}
</style>
<path d="M20,9c0-1.1-0.9-2-2-2h-3.2c-0.4,0-0.6-0.4-0.4-0.7C14.7,5.7,15,5,15,4.5C15,3.1,13.9,2,12.5,2S10,3.1,10,4.5
	c0,0.5,0.3,1.2,0.6,1.8C10.8,6.6,10.5,7,10.2,7H6C4.9,7,4,7.9,4,9v2.4c0,0.6,0.6,1.1,1.2,0.9c0.5-0.2,1-0.3,1.3-0.3
	C7.9,12,9,13.1,9,14.5S7.9,17,6.5,17c-0.3,0-0.8-0.1-1.3-0.3C4.6,16.6,4,17,4,17.6V20c0,1.1,0.9,2,2,2h12c1.1,0,2-0.9,2-2V9z"/>
<rect class="st0" width="24" height="24"/>
</svg>
