<?xml version="1.0" encoding="utf-8"?>
<!-- Generator: Adobe Illustrator 21.0.2, SVG Export Plug-In . SVG Version: 6.00 Build 0)  -->
<svg version="1.1" id="Layer_1" xmlns="http://www.w3.org/2000/svg" xmlns:xlink="http://www.w3.org/1999/xlink" x="0px" y="0px"
	 viewBox="0 0 24 24" style="enable-background:new 0 0 24 24;" xml:space="preserve">
<style type="text/css">
	.st0{fill:none;}
</style>
<path d="M5,2C3.9,2,3,2.9,3,4v15c0,1.1,0.9,2,2,2h8l1-1l-1-1H5V4h12v11l1,1l1-1V4c0-1.1-0.9-2-2-2H5z M15.4,16L14,17.4l2.6,2.6
	L14,22.6l1.4,1.4l2.5-2.6l2.6,2.6l1.4-1.4L19.4,20l2.6-2.6L20.6,16L18,18.6L15.4,16z"/>
<rect class="st0" width="24" height="24"/>
</svg>
