<?xml version="1.0" encoding="utf-8"?>
<!-- Generator: Adobe Illustrator 21.0.2, SVG Export Plug-In . SVG Version: 6.00 Build 0)  -->
<svg version="1.1" id="Layer_1" xmlns="http://www.w3.org/2000/svg" xmlns:xlink="http://www.w3.org/1999/xlink" x="0px" y="0px"
	 viewBox="0 0 24 24" style="enable-background:new 0 0 24 24;" xml:space="preserve">
<style type="text/css">
	.st0{fill:none;}
</style>
<path d="M5,2C4.5,2,3.9,2.2,3.6,2.6S3,3.5,3,4v15c0,0.5,0.2,1.1,0.6,1.4S4.5,21,5,21h7v-2H5V4h12v10h2V4c0-0.5-0.2-1.1-0.6-1.4
	S17.5,2,17,2H5z M17,16v3h-3v2h3v3h2v-3h3v-2h-3v-3H17z"/>
<rect class="st0" width="24" height="24"/>
</svg>
