<?xml version="1.0" encoding="utf-8"?>
<!-- Generator: Adobe Illustrator 21.0.2, SVG Export Plug-In . SVG Version: 6.00 Build 0)  -->
<svg version="1.1" id="Layer_1" xmlns="http://www.w3.org/2000/svg" xmlns:xlink="http://www.w3.org/1999/xlink" x="0px" y="0px"
	 viewBox="0 0 24 24" style="enable-background:new 0 0 24 24;" xml:space="preserve">
<style type="text/css">
	.st0{fill:none;}
</style>
<g id="surface1">
	<path d="M18,2c-1.7,0-3,1.3-3,3c0,0.2,0,0.4,0.1,0.6L7.9,9.7C7.4,9.3,6.7,9,6,9c-1.7,0-3,1.3-3,3s1.3,3,3,3c0.7,0,1.4-0.3,1.9-0.7
		l7.1,4.2c0,0.2-0.1,0.4-0.1,0.6c0,1.7,1.3,3,3,3s3-1.3,3-3s-1.3-3-3-3c-0.7,0-1.4,0.3-1.9,0.7l-7.1-4.2C9,12.4,9,12.2,9,12
		s0-0.4-0.1-0.6L16,7.2C16.6,7.7,17.3,8,18,8c1.7,0,3-1.3,3-3S19.7,2,18,2z"/>
</g>
<rect y="0" class="st0" width="24" height="24"/>
</svg>
